<mxfile host="app.diagrams.net" modified="2021-11-03T14:43:35.911Z" agent="5.0 (Windows NT 10.0; Win64; x64) AppleWebKit/537.36 (KHTML, like Gecko) Chrome/94.0.4606.81 Safari/537.36 OPR/80.0.4170.63" etag="OK4wt1zQaIaSHA8WrJFF" version="15.5.9" type="github">
  <diagram id="-TkmyencFT0D7HOC1oTV" name="Page-1">
    <mxGraphModel dx="2022" dy="1124" grid="1" gridSize="10" guides="1" tooltips="1" connect="1" arrows="1" fold="1" page="1" pageScale="1" pageWidth="827" pageHeight="1169" math="0" shadow="0">
      <root>
        <mxCell id="0" />
        <mxCell id="1" parent="0" />
        <mxCell id="dNxh2C9IQDeP3-NYU92U-1" value="&lt;b&gt;Persons&lt;/b&gt;" style="ellipse;whiteSpace=wrap;html=1;" vertex="1" parent="1">
          <mxGeometry x="413.5" y="690" width="80" height="50" as="geometry" />
        </mxCell>
        <mxCell id="dNxh2C9IQDeP3-NYU92U-2" value="&lt;b&gt;Deals&lt;/b&gt;" style="ellipse;whiteSpace=wrap;html=1;" vertex="1" parent="1">
          <mxGeometry x="510" y="690" width="80" height="50" as="geometry" />
        </mxCell>
        <mxCell id="dNxh2C9IQDeP3-NYU92U-3" value="&lt;b&gt;To Dos&lt;/b&gt;" style="ellipse;whiteSpace=wrap;html=1;" vertex="1" parent="1">
          <mxGeometry x="610" y="690" width="80" height="50" as="geometry" />
        </mxCell>
        <mxCell id="dNxh2C9IQDeP3-NYU92U-4" value="&lt;b&gt;History&lt;/b&gt;&lt;span style=&quot;color: rgba(0 , 0 , 0 , 0) ; font-family: monospace ; font-size: 0px&quot;&gt;%3CmxGraphModel%3E%3Croot%3E%3CmxCell%20id%3D%220%22%2F%3E%3CmxCell%20id%3D%221%22%20parent%3D%220%22%2F%3E%3CmxCell%20id%3D%222%22%20value%3D%22%26lt%3Bb%26gt%3BPersons%26lt%3B%2Fb%26gt%3B%22%20style%3D%22ellipse%3BwhiteSpace%3Dwrap%3Bhtml%3D1%3B%22%20vertex%3D%221%22%20parent%3D%221%22%3E%3CmxGeometry%20x%3D%22374%22%20y%3D%22560%22%20width%3D%2280%22%20height%3D%2250%22%20as%3D%22geometry%22%2F%3E%3C%2FmxCell%3E%3C%2Froot%3E%3C%2FmxGraphModel%3E&lt;/span&gt;" style="ellipse;whiteSpace=wrap;html=1;" vertex="1" parent="1">
          <mxGeometry x="710" y="690" width="80" height="50" as="geometry" />
        </mxCell>
        <mxCell id="dNxh2C9IQDeP3-NYU92U-5" value="&lt;b&gt;Documents&lt;/b&gt;" style="ellipse;whiteSpace=wrap;html=1;" vertex="1" parent="1">
          <mxGeometry x="810" y="690" width="80" height="50" as="geometry" />
        </mxCell>
        <mxCell id="dNxh2C9IQDeP3-NYU92U-6" value="&lt;b&gt;Marketing Activities&lt;/b&gt;" style="ellipse;whiteSpace=wrap;html=1;" vertex="1" parent="1">
          <mxGeometry x="910" y="690" width="80" height="50" as="geometry" />
        </mxCell>
        <mxCell id="dNxh2C9IQDeP3-NYU92U-7" value="&lt;b&gt;Participents&lt;/b&gt;" style="ellipse;whiteSpace=wrap;html=1;" vertex="1" parent="1">
          <mxGeometry x="1010" y="690" width="80" height="50" as="geometry" />
        </mxCell>
        <mxCell id="dNxh2C9IQDeP3-NYU92U-8" value="&lt;b&gt;Coworkers&lt;/b&gt;" style="ellipse;whiteSpace=wrap;html=1;" vertex="1" parent="1">
          <mxGeometry x="1120" y="690" width="80" height="50" as="geometry" />
        </mxCell>
      </root>
    </mxGraphModel>
  </diagram>
</mxfile>
